<?xml version="1.0" encoding="iso-8859-1"?>
<!-- Generator: Adobe Illustrator 19.0.0, SVG Export Plug-In . SVG Version: 6.00 Build 0)  -->
<svg version="1.1" id="Capa_1" xmlns="http://www.w3.org/2000/svg" xmlns:xlink="http://www.w3.org/1999/xlink" x="0px" y="0px"
	 viewBox="0 0 512 512" style="enable-background:new 0 0 512 512;" xml:space="preserve">
<g>
	<g>
		<path d="M506,124.01L385.997,34.008c-9.789-7.389-23.995-0.391-23.995,11.997V91.68C321.748,95.327,282.76,113.58,255,143.42
			c-27.76-29.84-64.748-48.092-105.003-51.739V46.005c0-12.391-14.21-19.383-23.995-11.997L6,124.01
			c-8.006,5.989-7.994,18.014,0,23.995l120.003,90.002c9.763,7.393,23.995,0.397,23.995-11.997v-43.492
			c34.19,6.972,60.001,37.266,60.001,73.493v210.005c0,8.291,6.709,14.997,15,14.997h60.001c8.291,0,15-6.706,15-14.997V256.01
			c0-36.226,27.812-66.52,62.001-73.493v43.492c0,12.378,14.209,19.407,23.995,11.997L506,148.005
			C514.006,142.016,513.994,129.99,506,124.01z"/>
	</g>
</g>
<g>
</g>
<g>
</g>
<g>
</g>
<g>
</g>
<g>
</g>
<g>
</g>
<g>
</g>
<g>
</g>
<g>
</g>
<g>
</g>
<g>
</g>
<g>
</g>
<g>
</g>
<g>
</g>
<g>
</g>
</svg>
